<?xml version="1.0" standalone="no"?><!DOCTYPE svg PUBLIC "-//W3C//DTD SVG 1.1//EN" "http://www.w3.org/Graphics/SVG/1.1/DTD/svg11.dtd"><svg t="1598656924169" class="icon" viewBox="0 0 1024 1024" version="1.1" xmlns="http://www.w3.org/2000/svg" p-id="2738" xmlns:xlink="http://www.w3.org/1999/xlink" width="512" height="512"><defs><style type="text/css"></style></defs><path d="M358.642983 971.741288a51.095864 51.095864 0 0 0 50.939661 50.939661h203.758644a51.095864 51.095864 0 0 0 50.939661-50.939661v-50.939661h-305.637966v50.939661zM511.479322 3.870373C314.83661 3.870373 154.884339 163.84 154.884339 360.482712c0 121.231186 60.624271 227.709831 152.818983 292.39539v115.121898a51.095864 51.095864 0 0 0 50.939661 50.939661h305.637966a51.095864 51.095864 0 0 0 50.939661-50.939661v-115.121898c92.212068-64.702915 152.818983-171.164203 152.818983-292.39539C868.039593 163.822644 708.122034 3.870373 511.479322 3.870373z m145.182373 565.456271l-43.303051 30.546441v117.152542H409.6v-117.152542l-43.285695-30.546441a254.524746 254.524746 0 0 1-109.515932-208.861288c0-140.600407 114.097898-254.715661 254.680949-254.715661 140.600407 0 254.698305 114.115254 254.698305 254.715661 0 83.03078-40.751729 160.958915-109.515932 208.843932z" fill="#9acd32" p-id="2739"></path></svg>