<?xml version="1.0" standalone="no"?><!DOCTYPE svg PUBLIC "-//W3C//DTD SVG 1.1//EN" "http://www.w3.org/Graphics/SVG/1.1/DTD/svg11.dtd"><svg t="1628386914167" class="icon" viewBox="0 0 1024 1024" version="1.1" xmlns="http://www.w3.org/2000/svg" p-id="12974" xmlns:xlink="http://www.w3.org/1999/xlink" width="128" height="128"><defs><style type="text/css"></style></defs><path d="M512 288m40 0l144 0q40 0 40 40l0 0q0 40-40 40l-144 0q-40 0-40-40l0 0q0-40 40-40Z" fill="#d4237a" p-id="12975"></path><path d="M512 432m40 0l144 0q40 0 40 40l0 0q0 40-40 40l-144 0q-40 0-40-40l0 0q0-40 40-40Z" fill="#d4237a" p-id="12976"></path><path d="M744.56 728l-31.712 31.712c-10.656 10.656-16.72 16.16-24.848 24.288a32.688 32.688 0 0 1-48 0c-10.88-10.464-29.248-28.688-29.248-28.688a39.888 39.888 0 0 1 52.912-59.552L688 671.424a40 40 0 1 1 56.56 56.576z" fill="#d4237a" p-id="12977"></path><path d="M352 112h80v800h-80z" fill="#d4237a" p-id="12978"></path><path d="M816 928H208a80 80 0 0 1-80-80V176a80 80 0 0 1 80-80h608a80 80 0 0 1 80 80v672a80 80 0 0 1-80 80z m0-704a48 48 0 0 0-48-48H256a48 48 0 0 0-48 48v576a48 48 0 0 0 48 48h512a48 48 0 0 0 48-48V224z" fill="#d4237a" p-id="12979"></path></svg>