<?xml version="1.0" standalone="no"?><!DOCTYPE svg PUBLIC "-//W3C//DTD SVG 1.1//EN" "http://www.w3.org/Graphics/SVG/1.1/DTD/svg11.dtd"><svg t="1598657519888" class="icon" viewBox="0 0 1024 1024" version="1.1" xmlns="http://www.w3.org/2000/svg" p-id="3749" width="128" height="128" xmlns:xlink="http://www.w3.org/1999/xlink"><defs><style type="text/css"></style></defs><path d="M844.434286 0h-664.868572C120.905143 0 73.142857 47.689143 73.142857 106.276571v810.057143c0 58.514286 47.762286 106.203429 106.422857 106.203429h260.461715a36.571429 36.571429 0 0 0 0-72.996572H179.565714A33.353143 33.353143 0 0 1 146.285714 916.333714V106.276571c0-18.285714 14.994286-33.206857 33.28-33.206857h664.868572c18.285714 0 33.28 14.921143 33.28 33.206857v552.521143H691.565714C632.905143 658.797714 585.142857 706.486857 585.142857 765.001143V1024h106.422857l21.357715-21.357714 216.502857-249.197715 21.430857-21.357714V106.276571C950.857143 47.689143 903.094857 0 844.434286 0z m2.779428 731.428571L658.285714 950.857143v-180.809143c0-21.357714 14.921143-38.619429 33.28-38.619429H877.714286h-30.500572z" p-id="3750" fill="#594d9c"></path><path d="M325.851429 329.142857h372.297142c18.285714 0 33.28-14.994286 33.28-33.28v-6.582857a33.353143 33.353143 0 0 0-33.28-33.28h-372.297142A33.353143 33.353143 0 0 0 292.571429 289.28v6.582857c0 18.285714 14.994286 33.28 33.28 33.28zM292.571429 515.291429c0 18.285714 14.994286 33.28 33.28 33.28h372.297142c18.285714 0 33.28-14.994286 33.28-33.28v-6.582858a33.353143 33.353143 0 0 0-33.28-33.28h-372.297142A33.353143 33.353143 0 0 0 292.571429 508.708571v6.582858z" p-id="3751" fill="#594d9c"></path></svg>