<?xml version="1.0" standalone="no"?><!DOCTYPE svg PUBLIC "-//W3C//DTD SVG 1.1//EN" "http://www.w3.org/Graphics/SVG/1.1/DTD/svg11.dtd"><svg t="1628387214794" class="icon" viewBox="0 0 1024 1024" version="1.1" xmlns="http://www.w3.org/2000/svg" p-id="3246" xmlns:xlink="http://www.w3.org/1999/xlink" width="128" height="128"><defs><style type="text/css"></style></defs><path d="M847.5 960.5h-672c-35.346 0-64-28.654-64-64v-704c0-35.346 28.654-64 64-64h85.484c13.181-37.282 48.72-64 90.516-64h320c41.796 0 77.335 26.718 90.516 64H847.5c35.346 0 64 28.654 64 64v704c0 35.346-28.654 64-64 64z m-379.501-99.236c8.301 8.35 18.75 12.5 31.25 12.5s22.9-4.15 31.25-12.5c8.301-8.301 12.5-18.75 12.5-31.25s-4.199-22.9-12.5-31.25c-8.35-8.301-18.75-12.5-31.25-12.5s-22.949 4.199-31.25 12.5c-8.35 8.35-12.5 18.75-12.5 31.25s4.15 22.95 12.5 31.25zM391.55 501.889c17.568 0 32.253-13.119 34.521-30.541 3.142-24.142 10.347-42.614 21.616-55.397 15.625-17.676 34.863-26.563 57.813-26.563 22.9 0 40.625 6.787 53.125 20.313 12.5 13.574 18.75 33.887 18.75 60.938 0 14.6-3.125 29.688-9.375 45.313-6.25 15.625-17.725 30.762-34.375 45.312-22.949 20.85-39.063 40.137-48.438 57.813-9.375 17.725-14.063 35.938-14.063 54.688v19.471c0 6.505 5.273 11.779 11.779 11.779h32.693c6.505 0 11.779-5.273 11.779-11.779V683.14c0-6.25 4.15-17.676 12.5-34.375 8.301-16.65 22.9-33.301 43.75-50 20.801-16.65 37.5-36.426 50-59.375 12.5-22.9 18.75-47.9 18.75-75 0-39.551-13.037-71.875-39.063-96.875-26.074-25-62.012-37.5-107.813-37.5-41.699 0-77.1 14.063-106.25 42.188-21.98 21.171-36.268 50.919-42.864 89.202-3.648 21.174 12.828 40.485 34.314 40.485h0.851zM671.5 128.5H352.166c-17.436 0-32.175 13.671-32.653 31.101-0.496 18.084 14.016 32.899 31.988 32.899h319.334c17.436 0 32.175-13.671 32.653-31.101 0.496-18.083-14.016-32.899-31.988-32.899z" p-id="3247" fill="#ec6c4f"></path></svg>